<?xml version="1.0" encoding="utf-8"?>
<!-- Generator: Adobe Illustrator 23.0.3, SVG Export Plug-In . SVG Version: 6.00 Build 0)  -->
<svg version="1.1" id="Layer_1" xmlns="http://www.w3.org/2000/svg" xmlns:xlink="http://www.w3.org/1999/xlink" x="0px" y="0px"
	 viewBox="0 0 372.8 72" style="enable-background:new 0 0 372.8 72;" xml:space="preserve">
<style type="text/css">
	.st0{fill:#FFFFFF;}
</style>
<path class="st0" d="M101,48.7h16.2V53H96V21.6h20.2V26H101v9.1h13v4.4h-13V48.7z M40.5,21.6c0-0.2-0.2-1.1-0.3-1.9
	c-0.1-0.4,0.1-0.8,0.3-0.9c0.8,0.9,1.6,1.6,2,2c0.4,0.4,0.3,0.8-0.2,1.1c-0.4,0.3-0.7,0.4-1,0.4C40.8,22.3,40.6,22,40.5,21.6z
	 M38.6,27.8c0,0.1,0,0.1-0.1,0.1c-0.9,0-4.8-0.4-5.5-3.4c-0.1-0.5-0.3-1-0.3-1c0,0-0.2,0-0.2,0.3c-0.1,0.3,0,0.5-0.3,0.6
	c-0.3,0.2-1.5,0-2.4-1.5c-0.9-1.5-0.1-1.9,0-1.9c0.4-0.1,1,0,1.2,0.8c0.2,0.7,1.2,1,1.1-0.8c0-0.7-0.2-1.5,0.7-2.2
	c0.9-0.7,1.9-1,1.5-1.3c0,0,0,0,0,0c-0.1,0-0.9-0.5-2.3-0.5c-3.4,0-5.4,3.1-5.4,3.1c-0.4,0.5-0.8,0.6-1,0.5c0,0,0,0,0-0.1
	c3.9-5.8,8-8.3,10.8-8.3c1,0,1.5,0.5,1.6,0.6c0,0,0,0.1,0,0.1c-0.3,0-1.6,0.1-3.5,0.8c-2.1,0.8-2.7,1.6-2.9,1.8c0,0,0,0,0,0
	c0.2,0.4,0.8,0.4,0.8,0.4c0.3,0,0.6-0.1,1-0.3c4-1.8,4.3-1.9,4.8-1.1c0.8,1.2,1.1,1.7,0.2,2.3c-1.1,0.8-2.9,1.1-1.1,2.7
	c0.9,0.8,2.1,1.1,1.9,2.9C39,24.2,36.2,25,38.6,27.8z M24.3,22.1c0.2,0.4,0.6,1.4,1.7,1.4c0.8,0,1.3-0.4,1.9-0.3
	c-0.8,2-3.7,2.1-4.6,0.1C23.6,23,24,22.5,24.3,22.1z M23,20.8c-1.8,2.8-4.5-0.3-2.2-1.2C21.3,20.2,21.8,20.6,23,20.8z M33,35.1
	c-0.2-0.1-5.1-1.8-10,4.2c-3-0.3-4-2-4.3-3c0.8-0.3,6.2-2.1,7.6-3.7c1.8-2,2.5-6.6,2.5-6.6c0,0,0.1-0.4,0.6-0.4c0.1,0,0.9,0.1,1.6,1
	C32.6,28.5,31.2,30.3,33,35.1z M44.4,23.8c0.3,0.6,0.4,1.2-0.1,1.9c0.1,0.3,0.2,0.6,0.2,0.9c0,0.6-0.3,1-0.5,1.2c0,0,0,0.1,0.1,0.2
	c0.5,1.1,0.2,2.3-0.8,3.1c-1,0.8-2.7,0.9-3.1,0.9c-1.1,0-2.6-0.2-2.7-0.2c0,0,0,0,0,0c-0.1,0.5-0.2,1.8,0.1,3.1
	c-0.9-1.6-0.9-3.4-1-4.4c1.1,0.1,2.4,0.3,3.4,0.3c1.1,0,1.9-0.1,2.6-0.6c0.6-0.5,0.8-1,0.4-1.6c-0.3-0.6-0.4-1,0.1-1.6
	c0.3-0.3,0.1-0.7-0.2-0.9c-0.3-0.2-0.3-0.4,0-0.7c0.5-0.5,0.5-0.7,0.1-1.3c-0.1-0.2-0.2-0.4-0.2-0.6c-0.1-0.3,0.1-0.5,0.4-0.6
	c0.7-0.2,1.2-0.8,1.2-1.4c0-0.2-0.2-0.5-0.3-0.7c-0.7-0.9-1.5-1.7-2.2-2.6c-0.4-0.4-0.3-0.9-0.1-1.4c0.1-0.3,0.1-0.7,0.1-1
	c-0.2-1.2-0.9-2.2-1.5-3.3c-0.1-0.1-0.2-0.3-0.1-0.4c0.5-1.2-1.1-3.6-3.3-3.7c-0.3,0-0.7,0-1-0.2c-0.9-0.6-2.1-1.1-5-1.1
	c-1.4,0-2.9,0.2-4.2,0.7c-2.3,0.9-4.2,3.2-3.4,5.3c0.1-0.3,1.3-4.3,4.9-3.8c0,0-1.1,0.8-1.1,2.3c0,0.8,1.1,1,1.5,0.3
	c1-2.4,2.3-1.5,2.4-1.5c0,0-1.4,0.4-0.9,2.5c0.1,0.3-0.1,0.6-0.5,0.6c-0.8,0-0.6-0.5-2.3,1.2C27,15,25,16,23.9,14.1
	c-0.1,0.1-0.4,0.5-0.6,1c-0.9,2.4,1.7,2.3,1.7,2.3c-0.7,0.9-1,1.5-1.1,1.6c-3.3-0.1-3-3-2.7-3.7c-0.7,0.2-1.4,1.3-1,2.7
	c-4.1,2-1.6,5.8,1.3,5.9c0-0.1-0.2,3.5,2.5,3.5c1.1,0,0.9-0.6,2.5-0.4c-0.5,0.5-1.4,1.4-2.8,1.4c-2,0-3.5-1.6-3.5-3.5
	c-0.6-0.1-1.5-0.6-2.4-1.5h0c-0.4-0.4-2.6-3.5,1.3-6c-0.5-4.8,2.7-6.1,3-6.2c2.3-6.9,12.1-5.9,14.7-4.1c5.4,0.7,4.9,4.8,4.9,4.9
	c0.6,1.1,1.3,2.2,1.6,3.5c0.2,1-0.2,1.6-0.2,1.9c2.3,2.8,2.8,3.1,2.8,4C45.7,22.4,45.2,23.3,44.4,23.8z M36,72C16.1,72,0,55.9,0,36
	S16.1,0,36,0s36,16.1,36,36S55.9,72,36,72z M52.6,66.1c5.5-3.1,10.1-7.6,13.3-13.1C56.6,39.2,43.7,52.4,52.6,66.1z M32.4,43.1
	c0,0,0-0.1,0-0.1c0-0.1-0.1-0.2-0.2-0.2c0,0-0.1,0-0.1,0l0,0c-3.5,2.3-7.5,9.8-9.4,24.8c1.1,0.5,2.3,0.9,3.5,1.3
	C26.4,53,30.1,46.7,32.4,43.1L32.4,43.1z M43.3,69.6c2.3-0.5,4.5-1.2,6.6-2.2C40.6,51.7,56.4,37,66.5,51.8c0.7-1.3,1.3-2.7,1.8-4.2
	C52.4,26.2,31.4,45.8,43.3,69.6z M36,1.6C17,1.6,1.6,17,1.6,36c0,6.9,2,13.3,5.6,18.7c1.8-5.2,4.3-12,5.2-14.1
	c0.7-1.7,2.1-2.7,3.9-3.4c0.5,1.1,2.5,3.6,5.5,3.7c-0.9,1.2-1.2,1.9-2.1,3.8c-1.3,2.8-2.4,5-3.8,7.2c0,0-0.7,1.1-2,1.3
	c-1.9-1-1.6-4.1-2-5.3c-0.2-0.4-0.5-0.5-0.8-0.2c-0.4,0.4,0,2.4,0,3.8c-0.1,1-0.7,2.9-1.9,5.7c2.8,3.5,6.2,6.4,10,8.6
	c0.6-3.8,1.6-8.7,2.8-12.3l0-0.1c0,0,0,0,0,0c0,0,0-0.1-0.1-0.1c0,0-0.1,0-0.1,0.1l0,0c-0.9,2-4.2,7.7-4.9,8.5c-0.2,0.2-0.8,0-1-0.8
	c-0.3-0.9-0.3-1.2-0.9-1.2c-2-0.1-2.4-1.6-2.5-2c-0.2-0.9,0.3-1.4,0.8-1.5c0.3-0.1,0.6-0.1,1-0.2c2.3-0.7,3.1-1.7,4.3-3.9
	c1.2-2.1,2.5-5.5,4.3-8.7c1.9-3.4,3.9-6.3,6-7.1c3.9-1.6,5.8,0.2,6.3,0.7c-4.1-0.1-6.3,2.7-8.3,5.8l0,0c0,0,0,0.1,0,0.1
	c0,0.1,0.1,0.2,0.2,0.2c0.1,0,0.1,0,0.2-0.1l0,0c1.5-1.6,4.9-4,10.6-3.9c-10.2,12.3-5.5,26.8-3.9,30.8c0.7,0,1.5,0.1,2.3,0.1
	c1.2,0,2.4-0.1,3.6-0.2C27,41.5,54.2,25.4,68.8,46.2c0.3-0.9,0.5-1.9,0.8-2.9c-11.4-17.2-28.6-6.7-29.6-5.7c0,0,0-1.7,1.8-2.6
	c5-2.5,9.5-3.3,14.1-2.6c5.1,0.7,10.1,3.8,14,9.4c0.3-1.9,0.5-3.8,0.5-5.8C70.4,17,55,1.6,36,1.6z M356.2,39.4h13.4v-4.4h-13.4V26
	h15.5v-4.4h-20.6V53h21.6v-4.4h-16.6V39.4z M160.3,54.4l1.6-0.6l-3.7,5l-0.2,0c-0.6,0.2-1.3,0.3-2,0.3c-3.6,0-6-0.9-9-2.4
	c-2.4-1.3-4.7-2.2-6.3-3l-0.5-0.2l0,0c-7.6-0.7-15.3-6.5-15.3-16.2c0-10.2,8.7-16.2,17.1-16.2c8.4,0,17.1,6.1,17.1,16.2
	c0,7-4.4,13-10.9,14.9l-0.4,0.1l0.3,0.1c0.7,0.2,1.4,0.5,2.2,0.9C154.3,55.2,157.3,55.5,160.3,54.4z M153.9,37.4
	c0-7.4-6.1-11.9-12-11.9c-5.8,0-12,4.2-12,11.9c0,7.7,6.2,11.9,12,11.9C147.8,49.3,153.9,44.8,153.9,37.4z M182.3,49.1
	c-5.1,0-8.1-2.8-8.1-7.6V21.6h-5v20.3c0,7,5.3,11.7,13.1,11.7c7.9,0,13-4.6,13-11.7V21.6h-4.9v19.9
	C190.4,46.3,187.5,49.1,182.3,49.1z M213.3,21.6h-5V53h5V21.6z M235.2,53h5V26h10.5v-4.4h-26V26h10.5L235.2,53L235.2,53z
	 M269.9,21.2L283.5,53h-5.2l-3.5-8.1l0-0.1h-12.1l-3.5,8.2h-5.1l13.6-31.9H269.9z M273,40.7l-3.2-7.7c-0.3-0.7-0.6-1.6-1-2.6
	l-0.1-0.3l-0.1,0.3c-0.3,0.9-0.7,1.8-1,2.6l-3.2,7.7H273z M313.4,43.4c0,6.3-5.3,9.7-10.6,9.7h-10.4V21.6h8.7c4.5,0,9.2,2.9,9.2,8.3
	c0,2.1-0.9,4.1-2.3,5.2l-0.2,0.1l0.2,0.1C310.7,36.5,313.4,39.4,313.4,43.4z M297.2,33.8h3.4c2.3,0,4.7-1,4.7-3.9c0-3-2.5-4-4.7-4
	h-3.3L297.2,33.8L297.2,33.8z M308.4,43.4c0-3.8-3.3-5.4-6.5-5.4h-4.6v10.9h4.7C305.2,48.8,308.4,47.1,308.4,43.4z M329.1,21.6h-5
	V53h19.3v-4.4h-14.3V21.6z"/>
</svg>
