<?xml version="1.0" encoding="utf-8"?>
<!-- Generator: Adobe Illustrator 27.7.0, SVG Export Plug-In . SVG Version: 6.00 Build 0)  -->
<svg version="1.1" id="Layer_1" xmlns="http://www.w3.org/2000/svg" xmlns:xlink="http://www.w3.org/1999/xlink" x="0px" y="0px"
	 viewBox="0 0 209.9 122.1" style="enable-background:new 0 0 209.9 122.1;" xml:space="preserve">
<style type="text/css">
	.st0{fill:#002677;}
</style>
<path class="st0" d="M3.8,114.2h12.3v3.3H0V93.7h15.3V97H3.8v6.9h9.9v3.3H3.8V114.2z M197.3,107.2h10.2v-3.3h-10.2V97H209v-3.3
	h-15.6v23.8h16.4v-3.3h-12.6L197.3,107.2L197.3,107.2z M48.7,118.6l1.2-0.5l-2.8,3.8H47c-0.4,0.1-1,0.2-1.5,0.2
	c-2.7,0-4.6-0.7-6.8-1.8c-1.8-1-3.6-1.7-4.8-2.2l-0.4-0.2l0,0c-5.8-0.5-11.6-4.9-11.6-12.3c0-7.7,6.6-12.3,13-12.3s13,4.6,13,12.3
	c0,5.3-3.3,9.9-8.2,11.3l-0.3,0.1l0.3,0.1c0.5,0.2,1,0.4,1.6,0.7C44.2,119.2,46.5,119.4,48.7,118.6z M43.9,105.7c0-5.6-4.6-9-9.1-9
	c-4.4,0-9.1,3.2-9.1,9c0,5.9,4.7,9,9.1,9C39.3,114.7,43.9,111.3,43.9,105.7z M65.5,114.6c-3.9,0-6.1-2.1-6.1-5.7V93.7h-3.8v15.4
	c0,5.3,4,8.8,9.9,8.8c6,0,9.9-3.5,9.9-8.8V93.7h-3.7v15.1C71.6,112.5,69.4,114.6,65.5,114.6z M89,93.7h-3.8v23.8H89V93.7z
	 M105.6,117.6h3.8V97h7.9v-3.3H97.6V97h7.9L105.6,117.6L105.6,117.6z M131.8,93.4l10.3,24.2h-3.9l-2.6-6.2v-0.1h-9.2l-2.6,6.2H120
	l10.3-24.2L131.8,93.4L131.8,93.4z M134.2,108.2c-2.8-6.7-2.6-6.3-3.2-8.1c-0.4,1.2-0.3,0.9-3.3,8.1H134.2z M164.8,110.2
	c0,4.8-4.1,7.3-8.1,7.3h-7.9V93.7h6.6c3.4,0,7,2.2,7,6.3c0,2.5-1.5,3.8-1.9,4.1C163.3,105.2,164.8,107.7,164.8,110.2z M152.6,103
	h2.5c1.7,0,3.6-0.8,3.6-3c0-2.3-1.9-3.1-3.6-3.1h-2.5V103z M161,110.2c0-2.8-2.5-4.1-4.9-4.1h-3.5v8.2h3.6
	C158.6,114.3,161,113.1,161,110.2z M176.7,93.7h-3.8v23.8h14.6v-3.3h-10.8V93.7L176.7,93.7z"/>
<path class="st0" d="M136.4,54.8c-9.7-15.6-23.8-1.1-13.6,13.4C128.9,64.8,133.6,59.8,136.4,54.8z M113.2,71.8
	c2.8-0.7,4.3-1.1,6.8-2.3c-10.7-16.6,6.6-32.6,17.1-15.8c0.7-1.4,1.4-2.8,1.9-4.3C122.5,25.9,100,46.8,113.2,71.8z M101.6,44
	L101.6,44c0-0.2-0.1-0.3-0.2-0.3h-0.1l0,0C97.7,46.1,93.5,54,91.6,70c1.2,0.5,2.4,0.9,3.7,1.3C95.4,54.3,99.2,47.7,101.6,44
	L101.6,44z M140.6,43.7c0.5-2.4,0.7-4.4,0.7-7c0-19.9-16.1-36-36-36s-36,16.1-36,36c0,7.5,2.3,14.4,6.2,20.2l0,0
	c1.9-5.4,4.7-13.1,5.7-15.5c0.7-1.8,2.2-2.8,4-3.4c0.5,1.2,2.5,3.7,5.7,3.8c-0.9,1.3-1.2,2-2.1,3.9c-1.3,2.9-2.4,5.1-3.9,7.4
	c0,0-0.8,1.2-2.1,1.3c-1.9-1.1-1.6-4.2-2.1-5.4c-0.2-0.4-0.6-0.5-0.8-0.2c-0.4,0.4,0,2.4,0,3.9c-0.1,1.2-0.9,3.4-2.4,6.7
	c4,4.9,8.1,7.5,10.5,8.9l0,0c0.6-4,1.7-9.5,3-13.4v-0.1l0,0c0-0.1,0-0.1-0.1-0.1c0,0-0.1,0-0.1,0.1l0,0c-1,2-4.3,7.9-5,8.7
	c-0.2,0.2-0.8,0-1-0.8c-0.3-1-0.3-1.2-0.9-1.3c-2-0.1-2.5-1.7-2.5-2c-0.2-0.9,0.3-1.4,0.8-1.5c0.3-0.1,0.6-0.1,1-0.2
	c2.3-0.7,3.2-1.7,4.4-4c1.2-2.2,2.5-5.7,4.4-8.9c1.9-3.5,4-6.4,6.1-7.3c4-1.7,6,0.2,6.5,0.7c-4.2-0.1-6.5,2.8-8.5,6l0,0v0.1
	c0,0.1,0.1,0.2,0.2,0.2c0.1,0,0.1,0,0.2-0.1l0,0c1.5-1.6,5-4.1,10.8-4c-11.5,13.8-4.5,30.3-3.7,32.3c1.8,0.1,3.8,0.1,6-0.2
	c-14-30.3,15.2-47.3,30.1-24.4c0.4-1,0.8-2.8,0.8-2.8c-11.7-19-29.9-7.8-30.9-6.9c0,0,0-1.7,1.8-2.6c5.1-2.6,9.7-3.4,14.5-2.7
	C131.1,33.8,136.6,37.3,140.6,43.7z M109.9,22c0-0.3-0.2-1.1-0.3-2c-0.1-0.4,0.1-0.8,0.3-0.9c0.8,0.9,1.6,1.6,2,2.1
	c0.4,0.4,0.3,0.8-0.2,1.1c-0.4,0.3-0.8,0.4-1,0.4C110.2,22.7,110,22.4,109.9,22z M108,28.3C108,28.4,108,28.4,108,28.3
	c-1,0.1-5-0.3-5.7-3.4c-0.1-0.5-0.3-1-0.3-1s-0.2,0-0.2,0.3c-0.1,0.3,0,0.5-0.3,0.6c-0.3,0.2-1.5,0-2.5-1.6c-0.9-1.5-0.1-1.9,0-2
	c0.4-0.1,1,0,1.3,0.8c0.2,0.7,1.3,1.1,1.1-0.8c0-0.7-0.2-1.6,0.7-2.3c0.9-0.7,1.9-1,1.5-1.3l0,0c-0.1,0-1-0.5-2.3-0.5
	c-3.5,0-5.5,3.1-5.6,3.2c-0.4,0.5-0.8,0.6-1.1,0.5c0,0,0,0,0-0.1c3.9-5.9,8.2-8.5,11-8.5c1,0,1.5,0.5,1.7,0.7V13
	c-0.3,0-1.7,0.1-3.5,0.9c-2.1,0.9-2.8,1.7-3,1.8c0,0,0,0,0,0.1c0.3,0.4,0.8,0.4,0.8,0.4c0.3,0,0.6-0.1,1-0.3
	c4.1-1.9,4.4-1.9,4.9-1.1c0.8,1.2,1.1,1.7,0.2,2.4c-1.1,0.8-3,1.2-1.1,2.8c0.9,0.8,2.2,1.1,2,3C108.3,24.7,105.5,25.4,108,28.3z
	 M93.3,22.5c0.2,0.5,0.6,1.4,1.7,1.4c0.9,0,1.3-0.4,2-0.3c-0.8,2.1-3.8,2.1-4.7,0.1C92.6,23.4,93,22.9,93.3,22.5z M92,21.1
	c-1.8,2.9-4.6-0.3-2.3-1.2C90.3,20.5,90.7,20.9,92,21.1z M102.3,35.7C102.1,35.6,97,33.8,92,40c-3-0.3-4.1-2.1-4.4-3
	c0.8-0.3,6.4-2.1,7.8-3.8c1.8-2.1,2.6-6.8,2.6-6.8s0.1-0.5,0.6-0.5c0.1,0,0.9,0.1,1.7,1C101.8,29,100.4,30.9,102.3,35.7z
	 M113.9,24.2c0.3,0.6,0.4,1.2-0.1,1.9c0.2,0.3,0.2,0.6,0.2,0.9c0,0.6-0.3,1-0.5,1.2c0,0,0,0.1,0.1,0.2c0.5,1.1,0.2,2.4-0.8,3.2
	c-1.1,0.8-2.7,0.9-3.2,0.9c-1.1,0-2.7-0.2-2.7-0.2l0,0c-0.1,0.6-0.2,1.8,0.1,3.2c-0.9-1.6-0.9-3.5-1-4.5c1.1,0.1,2.4,0.3,3.4,0.3
	c1.1,0,1.9-0.1,2.6-0.6c0.6-0.5,0.8-1,0.4-1.7c-0.3-0.6-0.4-1.1,0.1-1.6c0.3-0.3,0.1-0.7-0.2-0.9c-0.3-0.3-0.3-0.4,0-0.7
	c0.5-0.5,0.5-0.7,0.1-1.3c-0.1-0.2-0.2-0.4-0.2-0.6c-0.1-0.3,0.1-0.5,0.4-0.6c0.7-0.2,1.2-0.8,1.2-1.5c0-0.2-0.2-0.5-0.4-0.7
	c-0.7-0.9-1.5-1.8-2.2-2.7c-0.4-0.4-0.4-0.9-0.1-1.4c0.1-0.3,0.1-0.7,0.1-1c-0.2-1.3-1-2.3-1.6-3.4c-0.1-0.1-0.2-0.3-0.1-0.4
	c0.5-1.2-1.1-3.7-3.3-3.8c-0.3,0-0.7,0-1-0.2c-0.9-0.6-2.1-1.1-5.1-1.1c-1.5,0-2.9,0.2-4.3,0.7c-2.3,0.9-4.3,3.3-3.5,5.4
	c0.1-0.3,1.3-4.4,5-3.9c0,0-1.1,0.8-1.1,2.3c0,0.9,1.2,1.1,1.5,0.3c1-2.4,2.4-1.6,2.4-1.5c0,0-1.4,0.5-0.9,2.5
	c0.1,0.3-0.1,0.6-0.5,0.6c-0.8,0-0.6-0.5-2.3,1.3c-0.4,0.3-2.4,1.3-3.5-0.5c-0.1,0.1-0.5,0.5-0.7,1c-1,2.4,1.8,2.3,1.8,2.3
	c-0.7,1-1,1.6-1.1,1.7c-3.3-0.1-3.1-3.1-2.7-3.8c-0.7,0.2-1.4,1.3-1,2.8c-4.2,2.1-1.7,6,1.3,6.1c0-0.1-0.2,3.6,2.6,3.6
	c1.1,0,0.9-0.6,2.5-0.4c-0.5,0.5-1.4,1.4-2.9,1.4c-2,0-3.6-1.6-3.6-3.6c-0.6-0.2-1.5-0.6-2.4-1.6l0,0c-0.4-0.4-2.6-3.6,1.3-6.1
	c-0.5-4.9,2.8-6.2,3.1-6.4c2.3-7,12.4-6,15-4.2c5.6,0.7,5,4.9,5,5c0.6,1.1,1.3,2.2,1.6,3.6c0.2,1.1-0.2,1.7-0.2,1.9
	c2.4,2.8,2.9,3.2,2.9,4.1C115.2,22.7,114.7,23.7,113.9,24.2z"/>
</svg>
