<?xml version="1.0" encoding="utf-8"?>
<!-- Generator: Adobe Illustrator 27.7.0, SVG Export Plug-In . SVG Version: 6.00 Build 0)  -->
<svg version="1.1" id="Layer_1" xmlns="http://www.w3.org/2000/svg" xmlns:xlink="http://www.w3.org/1999/xlink" x="0px" y="0px"
	 viewBox="0 0 376.2 82" style="enable-background:new 0 0 376.2 82;" xml:space="preserve">
<style type="text/css">
	.st0{fill:#002677;}
</style>
<path class="st0" d="M102.4,54.7h16.2V59H97.4V27.6h20.2V32h-15.2v9.1h13v4.4h-13V54.7z M68.5,60.1C58.8,44.5,44.7,59,54.9,73.5
	C61,70.1,65.7,65.1,68.5,60.1z M45.3,77.1c2.8-0.7,4.3-1.1,6.8-2.3C41.4,58.2,58.7,42.2,69.2,59c0.7-1.4,1.4-2.8,1.9-4.3
	C54.6,31.2,32.1,52.1,45.3,77.1z M33.7,49.3c0,0,0-0.1,0-0.1c0-0.1-0.1-0.2-0.2-0.2c0,0-0.1,0-0.1,0l0,0c-3.6,2.4-7.8,10.3-9.7,26.3
	c1.2,0.5,2.4,0.9,3.7,1.3C27.5,59.6,31.3,53,33.7,49.3L33.7,49.3z M72.7,49c0.5-2.4,0.7-4.4,0.7-7c0-19.9-16.1-36-36-36
	c-19.9,0-36,16.1-36,36c0,7.5,2.3,14.4,6.2,20.2c0,0,0,0,0,0c1.9-5.4,4.7-13.1,5.7-15.5c0.7-1.8,2.2-2.8,4-3.4
	c0.5,1.2,2.5,3.7,5.7,3.8c-0.9,1.3-1.2,2-2.1,3.9c-1.3,2.9-2.4,5.1-3.9,7.4c0,0-0.8,1.2-2.1,1.3c-1.9-1.1-1.6-4.2-2.1-5.4
	c-0.2-0.4-0.6-0.5-0.8-0.2c-0.4,0.4,0,2.4,0,3.9c-0.1,1.2-0.9,3.4-2.4,6.7c4,4.9,8.1,7.5,10.5,8.9l0,0c0.6-4,1.7-9.5,3-13.4l0-0.1
	c0,0,0,0,0,0c0-0.1,0-0.1-0.1-0.1c0,0-0.1,0-0.1,0.1l0,0c-1,2-4.3,7.9-5,8.7c-0.2,0.2-0.8,0-1-0.8c-0.3-1-0.3-1.2-0.9-1.3
	c-2-0.1-2.5-1.7-2.5-2c-0.2-0.9,0.3-1.4,0.8-1.5c0.3-0.1,0.6-0.1,1-0.2c2.3-0.7,3.2-1.7,4.4-4c1.2-2.2,2.5-5.7,4.4-8.9
	c1.9-3.5,4-6.4,6.1-7.3c4-1.7,6,0.2,6.5,0.7c-4.2-0.1-6.5,2.8-8.5,6l0,0c0,0,0,0.1,0,0.1c0,0.1,0.1,0.2,0.2,0.2c0.1,0,0.1,0,0.2-0.1
	l0,0c1.5-1.6,5-4.1,10.8-4c-11.5,13.8-4.5,30.3-3.7,32.3c1.8,0.1,3.8,0.1,6-0.2c-14-30.3,15.2-47.3,30.1-24.4c0.4-1,0.8-2.8,0.8-2.8
	c-11.7-19-29.9-7.8-30.9-6.9c0,0,0-1.7,1.8-2.6c5.1-2.6,9.7-3.4,14.5-2.7C63.2,39.1,68.7,42.6,72.7,49z M42,27.3
	c0-0.3-0.2-1.1-0.3-2c-0.1-0.4,0.1-0.8,0.3-0.9c0.8,0.9,1.6,1.6,2,2.1c0.4,0.4,0.3,0.8-0.2,1.1c-0.4,0.3-0.8,0.4-1,0.4
	C42.3,28,42.1,27.7,42,27.3z M40.1,33.6c0,0.1,0,0.1-0.1,0.1c-0.9,0-4.9-0.4-5.6-3.5c-0.1-0.5-0.3-1-0.3-1c0,0-0.2,0-0.2,0.3
	c-0.1,0.3,0,0.5-0.3,0.6c-0.3,0.2-1.5,0-2.5-1.6c-0.9-1.5-0.1-1.9,0-2c0.4-0.1,1,0,1.3,0.8c0.2,0.7,1.3,1.1,1.1-0.8
	c0-0.7-0.2-1.6,0.7-2.3c0.9-0.7,1.9-1,1.5-1.3c0,0,0,0,0,0c-0.1,0-1-0.5-2.3-0.5c-3.5,0-5.5,3.1-5.6,3.2c-0.4,0.5-0.8,0.6-1.1,0.5
	c0,0,0,0,0-0.1c3.9-5.9,8.2-8.5,11-8.5c1,0,1.5,0.5,1.7,0.7c0,0,0,0.1,0,0.1c-0.3,0-1.7,0.1-3.5,0.9c-2.1,0.9-2.8,1.7-3,1.8
	c0,0,0,0,0,0.1c0.3,0.4,0.8,0.4,0.8,0.4c0.3,0,0.6-0.1,1-0.3c4.1-1.9,4.4-1.9,4.9-1.1c0.8,1.2,1.1,1.7,0.2,2.4
	c-1.1,0.8-3,1.2-1.1,2.8c0.9,0.8,2.2,1.1,2,3C40.4,30,37.6,30.7,40.1,33.6z M25.4,27.8c0.2,0.5,0.6,1.4,1.7,1.4c0.9,0,1.3-0.4,2-0.3
	C28.3,31,25.3,31,24.4,29C24.7,28.7,25.1,28.2,25.4,27.8z M24.1,26.4c-1.8,2.9-4.6-0.3-2.3-1.2C22.4,25.8,22.8,26.2,24.1,26.4z
	 M34.4,41c-0.2-0.1-5.3-1.9-10.3,4.3c-3-0.3-4.1-2.1-4.4-3c0.8-0.3,6.4-2.1,7.8-3.8c1.8-2.1,2.6-6.8,2.6-6.8c0,0,0.1-0.5,0.6-0.5
	c0.1,0,0.9,0.1,1.7,1C33.9,34.3,32.5,36.2,34.4,41z M46,29.5c0.3,0.6,0.4,1.2-0.1,1.9c0.2,0.3,0.2,0.6,0.2,0.9c0,0.6-0.3,1-0.5,1.2
	c0,0,0,0.1,0.1,0.2c0.5,1.1,0.2,2.4-0.8,3.2c-1.1,0.8-2.7,0.9-3.2,0.9c-1.1,0-2.7-0.2-2.7-0.2c0,0,0,0,0,0c-0.1,0.6-0.2,1.8,0.1,3.2
	c-0.9-1.6-0.9-3.5-1-4.5c1.1,0.1,2.4,0.3,3.4,0.3c1.1,0,1.9-0.1,2.6-0.6c0.6-0.5,0.8-1,0.4-1.7c-0.3-0.6-0.4-1.1,0.1-1.6
	c0.3-0.3,0.1-0.7-0.2-0.9c-0.3-0.3-0.3-0.4,0-0.7c0.5-0.5,0.5-0.7,0.1-1.3c-0.1-0.2-0.2-0.4-0.2-0.6c-0.1-0.3,0.1-0.5,0.4-0.6
	c0.7-0.2,1.2-0.8,1.2-1.5c0-0.2-0.2-0.5-0.4-0.7c-0.7-0.9-1.5-1.8-2.2-2.7c-0.4-0.4-0.4-0.9-0.1-1.4c0.1-0.3,0.1-0.7,0.1-1
	c-0.2-1.3-1-2.3-1.6-3.4c-0.1-0.1-0.2-0.3-0.1-0.4c0.5-1.2-1.1-3.7-3.3-3.8c-0.3,0-0.7,0-1-0.2c-0.9-0.6-2.1-1.1-5.1-1.1
	c-1.5,0-2.9,0.2-4.3,0.7c-2.3,0.9-4.3,3.3-3.5,5.4c0.1-0.3,1.3-4.4,5-3.9c0,0-1.1,0.8-1.1,2.3c0,0.9,1.2,1.1,1.5,0.3
	c1-2.4,2.4-1.6,2.4-1.5c0,0-1.4,0.5-0.9,2.5c0.1,0.3-0.1,0.6-0.5,0.6c-0.8,0-0.6-0.5-2.3,1.3c-0.4,0.3-2.4,1.3-3.5-0.5
	c-0.1,0.1-0.5,0.5-0.7,1c-1,2.4,1.8,2.3,1.8,2.3c-0.7,1-1,1.6-1.1,1.7c-3.3-0.1-3.1-3.1-2.7-3.8c-0.7,0.2-1.4,1.3-1,2.8
	c-4.2,2.1-1.7,6,1.3,6.1c0-0.1-0.2,3.6,2.6,3.6c1.1,0,0.9-0.6,2.5-0.4c-0.5,0.5-1.4,1.4-2.9,1.4c-2,0-3.6-1.6-3.6-3.6
	c-0.6-0.2-1.5-0.6-2.4-1.6h0c-0.4-0.4-2.6-3.6,1.3-6.1c-0.5-4.9,2.8-6.2,3.1-6.4c2.3-7,12.4-6,15-4.2c5.6,0.7,5,4.9,5,5
	c0.6,1.1,1.3,2.2,1.6,3.6c0.2,1.1-0.2,1.7-0.2,1.9c2.4,2.8,2.9,3.2,2.9,4.1C47.3,28,46.8,29,46,29.5z M357.6,45.4H371v-4.4h-13.4V32
	h15.5v-4.4h-20.6V59h21.6v-4.4h-16.6V45.4z M161.7,60.4l1.6-0.6l-3.7,5l-0.2,0c-0.6,0.2-1.3,0.3-2,0.3c-3.6,0-6-0.9-9-2.4
	c-2.4-1.3-4.7-2.2-6.3-3l-0.5-0.2l0,0c-7.6-0.7-15.3-6.5-15.3-16.2c0-10.2,8.7-16.2,17.1-16.2c8.4,0,17.1,6.1,17.1,16.2
	c0,7-4.4,13-10.9,14.9l-0.4,0.1l0.3,0.1c0.7,0.2,1.4,0.5,2.2,0.9C155.7,61.2,158.7,61.5,161.7,60.4z M155.3,43.4
	c0-7.4-6.1-11.9-12-11.9c-5.8,0-12,4.2-12,11.9c0,7.7,6.2,11.9,12,11.9C149.2,55.3,155.3,50.8,155.3,43.4z M183.7,55.1
	c-5.1,0-8.1-2.8-8.1-7.6V27.6h-5v20.3c0,7,5.3,11.7,13.1,11.7c7.9,0,13-4.6,13-11.7V27.6h-4.9v19.9
	C191.8,52.3,188.9,55.1,183.7,55.1z M214.7,27.6h-5V59h5V27.6z M236.6,59h5V32h10.5v-4.4h-26V32h10.5L236.6,59L236.6,59z
	 M271.3,27.2L284.9,59h-5.2l-3.5-8.1l0-0.1h-12.1l-3.5,8.2h-5.1l13.6-31.9H271.3z M274.4,46.7l-3.2-7.7c-0.3-0.7-0.6-1.6-1-2.6
	l-0.1-0.3l-0.1,0.3c-0.3,0.9-0.7,1.8-1,2.6l-3.2,7.7H274.4z M314.8,49.4c0,6.3-5.3,9.7-10.6,9.7h-10.4V27.6h8.7
	c4.5,0,9.2,2.9,9.2,8.3c0,2.1-0.9,4.1-2.3,5.2l-0.2,0.1l0.2,0.1C312.1,42.5,314.8,45.4,314.8,49.4z M298.7,39.8h3.4
	c2.3,0,4.7-1,4.7-3.9c0-3-2.5-4-4.7-4h-3.3L298.7,39.8L298.7,39.8z M309.8,49.4c0-3.8-3.3-5.4-6.5-5.4h-4.6v10.9h4.7
	C306.6,54.8,309.8,53.1,309.8,49.4z M330.5,27.6h-5V59h19.3v-4.4h-14.3V27.6z"/>
</svg>
